<?xml version="1.0" encoding="UTF-8" standalone="no"?>
<!-- Created with Inkscape (http://www.inkscape.org/) -->

<svg
   xmlns:dc="http://purl.org/dc/elements/1.1/"
   xmlns:cc="http://creativecommons.org/ns#"
   xmlns:rdf="http://www.w3.org/1999/02/22-rdf-syntax-ns#"
   xmlns:svg="http://www.w3.org/2000/svg"
   xmlns="http://www.w3.org/2000/svg"
   xmlns:sodipodi="http://sodipodi.sourceforge.net/DTD/sodipodi-0.dtd"
   xmlns:inkscape="http://www.inkscape.org/namespaces/inkscape"
   width="1000"
   height="375.94"
   viewBox="0 0 264.58333 99.467462"
   version="1.1"
   id="svg859"
   inkscape:version="0.92.2 (5c3e80d, 2017-08-06)"
   sodipodi:docname="Facebook 2005.svg">
  <defs
     id="defs853" />
  <sodipodi:namedview
     id="base"
     pagecolor="#ffffff"
     bordercolor="#666666"
     borderopacity="1.0"
     inkscape:pageopacity="0.0"
     inkscape:pageshadow="2"
     inkscape:zoom="0.7"
     inkscape:cx="551.32993"
     inkscape:cy="280.76345"
     inkscape:document-units="px"
     inkscape:current-layer="layer1"
     showgrid="false"
     units="px"
     inkscape:window-width="1366"
     inkscape:window-height="705"
     inkscape:window-x="-8"
     inkscape:window-y="-8"
     inkscape:window-maximized="1" />
  <metadata
     id="metadata856">
    <rdf:RDF>
      <cc:Work
         rdf:about="">
        <dc:format>image/svg+xml</dc:format>
        <dc:type
           rdf:resource="http://purl.org/dc/dcmitype/StillImage" />
        <dc:title></dc:title>
      </cc:Work>
    </rdf:RDF>
  </metadata>
  <g
     inkscape:label="Layer 1"
     inkscape:groupmode="layer"
     id="layer1"
     transform="translate(0,-197.53253)">
    <path
       id="rect6"
       d="M 0,197.53258 H 264.58333 V 297 H 0 Z"
       style="fill:#3b5998;stroke-width:0.99467421"
       inkscape:connector-curvature="0" />
    <path
       style="fill:#ffffff;stroke-width:0.99467421"
       inkscape:connector-curvature="0"
       id="path10"
       d="m 139.27479,246.86512 c -1.77468,0 -3.05396,0.58184 -4.35074,1.17486 V 261.454 c 1.24238,0.1185 1.95439,0.1185 3.13361,0.1185 4.25943,0 4.84322,-1.95049 4.84322,-4.67419 v -6.4071 c 0,-2.01072 -0.66733,-3.62609 -3.62609,-3.62609 z m -28.28654,-0.73192 c -2.95488,0 -3.62997,1.62265 -3.62997,3.63143 v 1.12872 h 7.25558 v -1.12872 c 0,-2.00878 -0.67413,-3.63143 -3.62561,-3.63143 z m -54.796444,13.96283 c 0,1.58915 0.749891,2.41481 2.405092,2.41481 1.775648,0 2.826661,-0.57893 4.122457,-1.17341 v -3.18218 h -3.882531 c -1.837331,0 -2.645018,0.34192 -2.645018,1.94078 z M 166.79054,246.86512 c -2.95974,0 -3.98549,1.61537 -3.98549,3.62609 v 7.33961 c 0,2.01654 1.02575,3.63677 3.98549,3.63677 2.95197,0 3.9855,-1.62023 3.9855,-3.63677 v -7.33961 c 0,-2.01072 -1.03353,-3.62609 -3.9855,-3.62609 z M 41.685979,268.32541 h -8.700971 v -21.06155 h -4.3483 v -7.25753 h 4.3483 v -4.35753 c 0,-5.92093 2.454145,-9.44163 9.428521,-9.44163 h 5.806799 v 7.25899 h -3.629492 c -2.715442,0 -2.894172,1.0141 -2.894172,2.90728 l -0.01068,3.63289 h 6.575146 l -0.769318,7.25753 h -5.805828 v 21.06155 z m 29.737746,0.0544 h -7.251699 l -0.314235,-1.83394 c -3.311372,1.83394 -6.266739,2.13117 -8.216261,2.13117 -5.318205,0 -8.149723,-3.55324 -8.149723,-8.46638 0,-5.79709 3.303115,-7.86609 9.212878,-7.86609 h 6.01467 v -1.25306 c 0,-2.95828 -0.339005,-3.82765 -4.889348,-3.82765 h -7.440143 l 0.727549,-7.25752 h 8.132725 c 9.984625,0 12.173587,3.15401 12.173587,11.14346 z m 24.660926,-20.58364 c -4.512945,-0.77321 -5.808742,-0.94319 -7.98022,-0.94319 -3.900502,0 -5.079249,0.86062 -5.079249,4.17248 v 6.26528 c 0,3.31234 1.178747,4.17685 5.079249,4.17685 2.171478,0 3.467275,-0.1729 7.98022,-0.94999 v 7.07929 c -3.952955,0.88588 -6.528034,1.119 -8.704856,1.119 -9.342068,0 -13.055584,-4.91314 -13.055584,-12.00991 v -5.08411 c 0,-7.10308 3.713515,-12.02448 13.055584,-12.02448 2.176822,0 4.751901,0.2341 8.704856,1.12387 z m 27.230179,8.90981 h -15.95655 v 0.58476 c 0,3.31234 1.17971,4.17685 5.07924,4.17685 3.50564,0 5.64507,-0.1729 10.14976,-0.94999 v 7.07929 c -4.34441,0.88588 -6.60817,1.119 -10.871,1.119 -9.34254,0 -13.058006,-4.91314 -13.058006,-12.00991 v -5.81263 c 0,-6.20943 2.756726,-11.29596 12.329976,-11.29596 9.57325,0 12.32658,5.02728 12.32658,11.29596 z m 28.28556,0.13405 c 0,6.85975 -1.9602,11.86226 -13.83704,11.86226 -4.28857,0 -6.80439,-0.37688 -11.53783,-1.1054 v -39.21047 l 8.69853,-1.4517 v 13.71563 c 1.87959,-0.69841 4.31285,-1.05296 6.52755,-1.05296 8.69952,0 10.14879,3.90002 10.14879,10.16724 z m 27.8839,0.14959 c 0,5.91753 -2.44297,11.65634 -12.66461,11.65634 -10.22649,0 -12.71512,-5.73881 -12.71512,-11.65634 v -5.71355 c 0,-5.92045 2.48863,-11.66022 12.71512,-11.66022 10.22164,0 12.66461,5.73977 12.66461,11.66022 z m 27.86447,0 c 0,5.91753 -2.44588,11.65634 -12.66557,11.65634 -10.22649,0 -12.71513,-5.73881 -12.71513,-11.65634 v -5.71355 c 0,-5.92045 2.48864,-11.66022 12.71513,-11.66022 10.21969,0 12.66557,5.73977 12.66557,11.66022 z m 28.59592,11.33579 h -9.429 l -7.97392,-13.31154 v 13.31154 h -8.70145 v -39.93899 l 8.70145,-1.4517 v 25.71097 l 7.97392,-12.63936 h 9.429 l -8.70535,13.79334 z m -41.29063,-21.46029 c -2.95488,0 -3.98064,1.61537 -3.98064,3.62609 v 7.33961 c 0,2.01654 1.02576,3.63677 3.98064,3.63677 2.951,0 3.99521,-1.62023 3.99521,-3.63677 v -7.33961 c 0,-2.01072 -1.04421,-3.62609 -3.99521,-3.62609 z" />
  </g>
</svg>
