<?xml version="1.0" encoding="UTF-8" standalone="no"?>
<svg
   xmlns:dc="http://purl.org/dc/elements/1.1/"
   xmlns:cc="http://creativecommons.org/ns#"
   xmlns:rdf="http://www.w3.org/1999/02/22-rdf-syntax-ns#"
   xmlns:svg="http://www.w3.org/2000/svg"
   xmlns="http://www.w3.org/2000/svg"
   viewBox="0 0 1628.75 285"
   height="285"
   width="1628.75"
   version="1.1"
   id="svg5258">
  <metadata
     id="metadata5264">
    <rdf:RDF>
      <cc:Work
         rdf:about="">
        <dc:format>image/svg+xml</dc:format>
        <dc:type
           rdf:resource="http://purl.org/dc/dcmitype/StillImage" />
        <dc:title></dc:title>
      </cc:Work>
    </rdf:RDF>
  </metadata>
  <defs
     id="defs5262" />
  <path
     id="path4498"
     d="M 323.45312 1.5332031 L 265.14648 226.125 L 489.73828 284.43359 L 548.04492 59.841797 L 323.45312 1.5332031 z M 0.5 26.5 L 0.5 259.5 L 103.56445 259.5 L 103.56445 173.23242 C 118.1206 173.23242 128.80695 180.25555 135.62695 194.30273 C 142.54875 208.34991 146.97808 230.08235 148.91211 259.5 L 255.94531 259.5 C 251.05934 213.79576 236.04476 176.59183 210.90234 147.88672 C 228.614 135.4682 237.4707 118.26424 237.4707 96.277344 C 237.4707 76.326274 229.93813 59.734806 214.87305 46.501953 C 199.80795 33.167309 179.09243 26.5 152.72852 26.5 L 0.5 26.5 z M 571.17578 26.5 L 571.17578 259.5 L 733.78711 259.5 C 759.03132 259.5 778.62687 253.64739 792.57227 241.94141 C 806.61945 230.23543 813.64258 214.61031 813.64258 195.06641 C 813.64258 182.54609 810.53934 172.1125 804.33008 163.76562 C 798.12082 155.31696 789.00941 147.93605 776.99805 141.625 C 797.25449 130.12259 807.38281 113.43002 807.38281 91.544922 C 807.38281 71.492061 799.74915 55.662788 784.48047 44.058594 C 769.31358 32.352608 746.817 26.5 716.99219 26.5 L 571.17578 26.5 z M 844.79883 26.5 L 844.79883 259.5 L 1038.4062 259.5 L 1038.4062 201.02148 L 948.01562 201.02148 L 948.01562 26.5 L 844.79883 26.5 z M 1330.5684 26.5 L 1421.5703 141.625 L 1330.5684 259.5 L 1442.6406 259.5 L 1478.2168 213.23633 L 1515.166 259.5 L 1628.002 259.5 L 1534.252 141.01562 L 1622.3535 26.5 L 1510.4336 26.5 L 1477.6055 69.404297 L 1443.252 26.5 L 1330.5684 26.5 z M 1070.5762 26.964844 L 1070.5762 259.00195 L 1302.6133 259.00195 L 1302.6133 26.964844 L 1070.5762 26.964844 z M 674.39258 73.375 L 680.65234 73.375 C 698.77117 73.375 707.83203 80.907562 707.83203 95.972656 C 707.83203 104.31953 705.48903 110.22269 700.80664 113.68359 C 696.12424 117.0427 688.18531 118.72266 676.98828 118.72266 L 674.39258 118.72266 L 674.39258 73.375 z M 103.56445 74.443359 L 109.82422 74.443359 C 118.57826 74.443359 124.83724 76.784402 128.60352 81.466797 C 132.36979 86.0474 134.25391 91.39253 134.25391 97.5 C 134.25391 112.05614 124.99083 119.33398 106.46484 119.33398 L 103.56445 119.33398 L 103.56445 74.443359 z M 390.53711 115.66406 L 433.91406 126.92578 L 422.65234 170.30273 L 379.27734 159.04102 L 390.53711 115.66406 z M 1164.1875 120.57617 L 1209.002 120.57617 L 1209.002 165.39062 L 1164.1875 165.39062 L 1164.1875 120.57617 z M 674.39258 157.81055 L 681.56836 157.81055 C 700.80689 157.81055 710.42773 166.56418 710.42773 184.07227 C 710.42773 192.92809 707.88254 199.18903 702.79297 202.85352 C 697.80521 206.4162 689.40739 208.19727 677.59961 208.19727 L 674.39258 208.19727 L 674.39258 157.81055 z "
     style="color:#000000;font-style:normal;font-variant:normal;font-weight:bold;font-stretch:normal;font-size:314px;line-height:125%;font-family:'Gill Sans Ultra Bold';-inkscape-font-specification:'Gill Sans Ultra Bold, Bold';text-align:start;writing-mode:lr-tb;text-anchor:start;clip-rule:nonzero;visibility:visible;isolation:auto;mix-blend-mode:normal;color-interpolation:sRGB;color-interpolation-filters:linearRGB;solid-color:#000000;solid-opacity:1;fill:#e42419;fill-opacity:1;fill-rule:nonzero;stroke:none;stroke-width:12;stroke-linecap:butt;stroke-linejoin:miter;stroke-miterlimit:4;stroke-dasharray:none;stroke-dashoffset:0;stroke-opacity:1;color-rendering:auto;image-rendering:auto;shape-rendering:auto;text-rendering:auto" />
</svg>
