<?xml version="1.0" encoding="UTF-8" standalone="no"?>
<!-- Created with Inkscape (http://www.inkscape.org/) -->

<svg
   xmlns:dc="http://purl.org/dc/elements/1.1/"
   xmlns:cc="http://creativecommons.org/ns#"
   xmlns:rdf="http://www.w3.org/1999/02/22-rdf-syntax-ns#"
   xmlns:svg="http://www.w3.org/2000/svg"
   xmlns="http://www.w3.org/2000/svg"
   xmlns:sodipodi="http://sodipodi.sourceforge.net/DTD/sodipodi-0.dtd"
   xmlns:inkscape="http://www.inkscape.org/namespaces/inkscape"
   version="1.1"
   id="svg10"
   width="631"
   height="155"
   viewBox="0 0 631 155"
   sodipodi:docname="Roblox_logo.svg"
   inkscape:version="0.92.3 (2405546, 2018-03-11)">
  <metadata
     id="metadata16">
    <rdf:RDF>
      <cc:Work
         rdf:about="">
        <dc:format>image/svg+xml</dc:format>
        <dc:type
           rdf:resource="http://purl.org/dc/dcmitype/StillImage" />
        <dc:title></dc:title>
      </cc:Work>
    </rdf:RDF>
  </metadata>
  <defs
     id="defs14" />
  <sodipodi:namedview
     pagecolor="#ffffff"
     bordercolor="#666666"
     borderopacity="1"
     objecttolerance="10"
     gridtolerance="10"
     guidetolerance="10"
     inkscape:pageopacity="0"
     inkscape:pageshadow="2"
     inkscape:window-width="1920"
     inkscape:window-height="1017"
     id="namedview12"
     showgrid="false"
     inkscape:zoom="2.8922345"
     inkscape:cx="315.5"
     inkscape:cy="77.5"
     inkscape:window-x="-8"
     inkscape:window-y="-8"
     inkscape:window-maximized="1"
     inkscape:current-layer="svg10" />
  <path
     style="fill:#f51e00;fill-opacity:1"
     d="m 551.53726,138.24928 c -20.45087,-17.40887 -24.36371,-20.26711 -26.12061,-19.08051 -0.55129,0.37234 -2.91904,4.27698 -5.26166,8.67698 -2.34262,4.4 -4.82854,8.58502 -5.52427,9.30004 -1.03519,1.06389 -4.06495,0.50097 -16.67921,-3.09894 -8.47784,-2.41944 -16.98925,-4.84033 -18.91425,-5.37976 -3.29416,-0.9231 -3.76923,-0.73326 -8.07774,3.22789 l -4.57775,4.20867 -35.92225,0.50223 -35.92226,0.50223 -4.16486,-4.50704 -4.16486,-4.50704 -5.83514,0.69577 c -3.20933,0.38267 -15.92734,2.70687 -28.26224,5.16489 -12.33491,2.45801 -22.96559,4.26248 -23.62373,4.00993 -0.65815,-0.25256 -1.52291,-2.18262 -1.9217,-4.28903 l -0.72508,-3.82984 -2.72402,3.25 -2.72402,3.25 -12.92718,0.0391 c -7.10994,0.0215 -22.60217,0.44878 -34.42717,0.94953 -11.825,0.50076 -29.0375,1.22885 -38.25,1.61798 l -16.75,0.7075 v -6.20235 -6.20236 l -3.25,0.56484 c -8.86049,1.53991 -37.62806,3.60235 -58.41152,4.18771 l -23.27298,0.65547 -4.01108,-2.77968 c -2.2061,-1.52882 -7.56786,-6.4845 -11.91503,-11.01261 l -7.90394,-8.23293 -0.71844,-9.07728 -0.71844,-9.077271 -6.14929,-0.54082 c -3.382102,-0.29748 -11.32428,-0.79158 -17.64928,-1.09803 -11.106727,-0.53813 -11.42882,-0.49634 -9.41856,1.22201 1.144792,0.97856 15.432292,12.532551 31.75,25.675551 16.31771,13.143 29.66856,24.45866 29.66856,25.14592 0,0.84447 -2.67451,1.46604 -8.25,1.91735 -13.29801,1.07639 -31.484402,3.3622 -43.790565,5.50395 -13.866916,2.41338 -12.821638,3.0818 -19.490444,-12.46358 -7.01607,-16.35487 -20.146394,-42.987381 -21.918797,-44.458341 -3.031923,-2.51627 -1.656489,4.09942 4.565248,21.958341 7.705464,22.11783 8.929804,26 8.199759,26 -0.324025,0 -10.069943,-2.48382 -21.657597,-5.51959 -20.816749,-5.45365 -25.6576039,-7.30452 -25.6576039,-9.81002 0,-5.47865 -3.404322,-51.178071 -5.062347,-67.956671 -1.1297319,-11.43245 -1.9153666,-22.44567 -1.7458552,-24.47382 0.2872461,-3.43682 0.5801829,-3.73824 4.3082022,-4.433 10.4470379,-1.94694 86.2973069,-10.43952 97.9999999,-10.97258 l 6,-0.2733 4.5,13.65873 c 2.475,7.51231 4.79641,13.94499 5.15869,14.29486 0.36229,0.34986 0.95668,-0.30273 1.32087,-1.45021 1.65523,-5.21515 11.34873,-7.09576 40.02044,-7.76424 27.52861,-0.64182 46.6774,0.69618 50.47258,3.52672 1.68665,1.25794 4.11097,5.84168 7.28769,13.77907 l 4.76028,11.89405 -0.32077,-20.21216 -0.32077,-20.21217 2.5605,-0.47553 c 7.37901,-1.3704 54.55203,-4.60014 67.18884,-4.60014 9.31035,0 11.3283,0.69553 18.88225,6.50816 3.21062,2.47052 6.09667,4.49184 6.41344,4.49184 0.31678,0 0.57596,-7.03314 0.57596,-15.62921 V 0.08732972 l 7.25,0.67375 c 13.87532,1.28944998 43.26556,4.68562998 45.61902,5.27149998 2.78679,0.69373 2.89997,-2.69581 -1.92445,57.6371593 -1.61952,20.2532 -2.94457,38.140691 -2.94457,39.750001 v 2.92601 h 6.32854 6.32853 l -1.22785,-7.750001 c -2.18995,-13.82267 -3.62975,-33.49349 -3.27545,-44.75 0.33434,-10.62231 0.49771,-11.3173 4.75796,-20.24137 2.42645,-5.08276 5.1797,-9.93638 6.11833,-10.78583 2.85909,-2.58744 18.63427,-3.64971 49.0246,-3.30123 22.87861,0.26235 28.9844,0.61354 30.34701,1.74548 0.93819,0.77937 4.23617,5.72937 7.32883,11 3.09266,5.27062 6.17813,10.20153 6.8566,10.95758 1.03931,1.15814 3.34734,0.85556 14.65556,-1.92134 7.38209,-1.81277 14.12714,-3.02536 14.989,-2.69463 0.86187,0.33073 2.11225,2.32033 2.77865,4.42133 0.66639,2.10101 2.27048,5.67249 3.56465,7.93664 l 2.35302,4.11662 11.67479,-11.39664 c 15.93161,-15.55204 26.3534,-23.33661 31.24248,-23.33661 6.12421,0 55.33011,13.85668 56.62057,15.9447 0.30766,0.4978 -5.18379,4.71164 -12.20322,9.36408 -17.68334,11.72042 -33.91547,23.60733 -40.68291,29.79238 l -5.70653,5.21545 25.81342,10.37828 c 27.5309,11.068771 48.31342,20.587071 48.31342,22.127301 0,1.25748 -2.64691,3.20567 -29.5,21.71271 -30.31777,20.89488 -29.68651,20.47051 -30.38955,20.4294 -0.33575,-0.0196 -9.61045,-7.69699 -20.61045,-17.06077 z m -460,1.53276 c 4.949998,-0.77023 11.33594,-1.40849 14.19098,-1.41835 2.85504,-0.01 5.45241,-0.44093 5.77192,-0.95792 0.83128,-1.34502 -8.55873,-11.08287 -30.41182,-31.53837 C 70.610246,96.059419 62.03726,87.654689 62.03726,87.190229 c 0,-0.46446 10.513421,-0.84448 23.363158,-0.84448 h 23.363162 l 4.63684,-4.95716 c 2.86492,-3.06283 4.63684,-5.87918 4.63684,-7.36995 0,-4.32061 -13.16934,-46.79027 -15.36665,-49.55573 -0.87906,-1.10636 -3.401532,-1.24887 -12.616046,-0.71278 -20.792181,1.20966 -64.465204,6.40681 -73.409617,8.73584 l -3.892313,1.01351 0.688383,10.67314 c 0.844174,13.08863 6.135909,64.996371 7.694057,75.472621 0.824357,5.54258 1.584615,7.77031 2.769251,8.11453 3.990479,1.15951 13.882759,2.58598 17.933226,2.58598 3.743403,0 4.356127,-0.27222 3.938967,-1.75 -0.271702,-0.9625 -2.852042,-9.50023 -5.734087,-18.97272 -2.882046,-9.4725 -4.976351,-17.910001 -4.654012,-18.750001 0.423568,-1.1038 2.055231,-1.52728 5.884618,-1.52728 h 5.298547 l 6.830398,13.750001 c 3.756719,7.5625 9.991431,19.53623 13.854915,26.60829 l 7.024516,12.85828 4.127924,-0.68993 c 2.270357,-0.37946 8.177923,-1.32012 13.127923,-2.09035 z M 38.230493,70.696199 c -0.541556,-1.01775 -1.283477,-5.45045 -1.648712,-9.85045 -0.365235,-4.4 -0.897921,-9.2375 -1.183748,-10.75 l -0.519684,-2.75 h 6.85569 c 6.4969,0 21.17771,1.42491 26.053221,2.52871 1.983545,0.44907 2.248697,1.12887 2.238994,5.74035 -0.0061,2.87702 -0.274744,6.82485 -0.597092,8.77296 l -0.586086,3.54203 -11.652908,1.76688 c -6.409099,0.97179 -13.075385,2.01058 -14.813967,2.30843 -2.413769,0.41351 -3.393836,0.10408 -4.145708,-1.30891 z m 20.306767,-7.57708 c 4.79055,-1.22003 5.013006,-1.43053 5.31047,-5.02513 0.392104,-4.73823 -0.988591,-5.34702 -14.35136,-6.32791 l -9.772873,-0.71737 0.648189,5.39852 c 0.356505,2.96919 0.652101,6.2511 0.656882,7.29313 0.0079,1.72308 0.574504,1.83836 6.258692,1.27336 3.4375,-0.34168 8.5,-1.19425 11.25,-1.8946 z m 520.16255,73.406131 c 3.2106,-2.65127 11.34995,-8.56435 18.08745,-13.14018 6.7375,-4.57582 12.25,-8.67879 12.25,-9.11771 0,-0.81932 -38.21007,-20.194751 -54.75,-27.762441 -5.0875,-2.32774 -9.25,-4.58777 -9.25,-5.0223 0,-2.18769 23.03827,-22.70198 38.77482,-34.52679 5.65115,-4.24641 10.02053,-8.13219 9.70974,-8.63506 -0.64183,-1.0385 -9.18036,-3.65483 -24.42171,-7.48316 l -10.43715,-2.62161 -6.06285,4.22599 c -8.66895,6.04252 -21.02898,16.62615 -28.45632,24.36653 l -6.39347,6.66294 -3.93195,-3.81285 c -2.16257,-2.09707 -5.36051,-6.20493 -7.10653,-9.12858 l -3.17458,-5.31572 -4.43085,0.65412 c -5.0677,0.74813 -13.89249,3.37566 -25.85295,7.69758 -7.07436,2.55632 -8.10335,3.21079 -7.04781,4.48264 0.6798,0.81911 7.67001,6.46929 15.5338,12.55595 7.8638,6.08667 14.29781,11.62802 14.29781,12.31411 0,1.41744 -4.74267,7.58289 -16.67569,21.678321 -11.21867,13.25163 -11.19054,13.18496 -6.37568,15.11149 3.89951,1.56027 31.77725,9.28434 35.52539,9.843 1.51494,0.2258 3.0266,-1.45278 6.5,-7.21778 6.25972,-10.3896 9.1157,-13.98799 11.102,-13.98799 1.94147,0 20.73527,13.22964 35.46673,24.9663 5.47649,4.36316 10.2554,7.95568 10.6198,7.98336 0.36441,0.0277 3.28941,-2.11888 6.5,-4.77016 z M 281.5198,131.33217 c 16.68692,-1.16887 31.06382,-2.62927 32.4209,-3.29331 2.97833,-1.45732 14.0784,-21.01216 14.08914,-24.82067 0.01,-3.383991 -0.88405,-4.082921 -15.31988,-11.982331 -6.64361,-3.63544 -12.23139,-7.06617 -12.41728,-7.62384 -0.18589,-0.55767 4.13108,-3.85114 9.59326,-7.31883 5.46219,-3.46768 10.61763,-7.46683 11.45655,-8.887 0.83892,-1.42017 2.4163,-6.0602 3.50529,-10.31116 l 1.98,-7.72903 -6.64526,-5.84178 c -8.04322,-7.07072 -18.80621,-15.45833 -21.93592,-17.09469 -1.76805,-0.92442 -5.9888,-0.93696 -18.5,-0.0549 -20.71561,1.4604 -47.518,4.44662 -48.47254,5.40064 -0.40524,0.40501 -0.89615,13.58658 -1.09092,29.29238 -0.32675,26.34906 -0.18269,29.4055 1.86409,39.548131 2.54644,12.61867 2.28969,16.72605 -1.38395,22.13946 -1.75562,2.58705 -2.62602,5.19981 -2.62602,7.88277 v 4.01312 l 11.75,-0.60936 c 6.4625,-0.33515 25.24214,-1.55445 41.73254,-2.70955 z m -24.81075,-12.70846 c -0.94127,-1.523 -3.92837,-25.166941 -3.36499,-26.635081 0.60788,-1.58412 14.74272,-3.64288 25.01092,-3.64288 h 6.68228 l -0.008,3.75 c -0.01,4.38319 -1.81799,21.017331 -2.53894,23.353881 -0.38806,1.25768 -2.5329,1.74713 -9.93674,2.26757 -5.19302,0.36503 -10.75399,0.92612 -12.35771,1.24687 -1.60372,0.32074 -3.1727,0.16758 -3.48662,-0.34036 z m 16.20035,-8.90239 c 2.50963,-0.50192 3.33441,-1.3357 4.20416,-4.25 0.59511,-1.99406 0.9339,-5.42557 0.75286,-7.625571 l -0.32916,-4 -7.23011,0.13538 c -10.59657,0.19842 -10.63493,0.22818 -10.02869,7.780751 0.28146,3.5063 0.81888,6.87207 1.19429,7.47948 0.75016,1.21379 6.5504,1.45721 11.43665,0.47996 z M 258.60043,72.447959 c -0.77119,-1.2478 -2.4041,-14.28613 -2.76406,-22.07026 l -0.29911,-6.46806 4.5,0.27606 c 6.66031,0.40859 16.59648,1.9601 24.38061,3.80699 l 6.88062,1.63252 -0.64646,6.95562 c -1.04136,11.20459 -0.9305,11.12265 -19.91553,14.71895 -12.60266,2.3873 -11.43833,2.27715 -12.13607,1.14818 z m 23.04717,-9.14416 c 2.30765,-0.87736 2.46785,-1.36503 2.18973,-6.66536 -0.29666,-5.65377 -0.33983,-5.7269 -3.80007,-6.43729 -1.925,-0.3952 -6.822,-1.03278 -10.88222,-1.41685 l -7.38222,-0.6983 0.4418,8.41725 c 0.24298,4.62949 0.74634,8.91003 1.11857,9.51232 0.69648,1.12692 13.0155,-0.69712 18.31441,-2.71177 z m 87.27785,61.514871 c 10.6635,-1.91011 20.42445,-3.47292 21.69098,-3.47292 2.79327,0 3.16368,-0.53967 4.0121,-5.84538 l 0.66435,-4.15462 h -18.71313 -18.71313 l 0.60543,-7.25 c 0.75368,-9.025261 3.24352,-54.815331 4.15041,-76.329321 l 0.67781,-16.07932 -9.8815,-1.15183 C 347.98394,9.9017797 340.04976,9.0878997 335.78726,8.7266697 l -7.75,-0.65678 -0.007,8.8879293 c -0.004,4.88836 -0.28466,11.8256 -0.62389,15.41608 l -0.61678,6.52814 4.18366,2.89928 c 6.50716,4.50947 6.56403,4.93633 2.50007,18.76854 -3.3323,11.34191 -3.57298,13.03349 -3.16349,22.23347 l 0.4432,9.95757 3.64217,3.1484 c 2.00308,1.73163 3.64206,3.81063 3.64206,4.620021 0,0.80939 -1.17595,4.3617 -2.61323,7.89402 -2.60227,6.39547 -2.84089,12.28055 -0.82381,20.31722 l 0.58831,2.34402 7.17436,-1.39649 c 3.9459,-0.76807 15.89906,-2.95931 26.56256,-4.86942 z m 64.98816,3.9929 c 14.507,-0.82718 26.77684,-1.75148 27.26632,-2.05399 1.46369,-0.90461 0.094,-2.11449 -3.12186,-2.75767 -1.66145,-0.33229 -3.02081,-0.95497 -3.02081,-1.38374 0,-0.42876 4.05,-5.60222 9,-11.49657 l 9,-10.717 V 87.750249 75.097899 l -4.75,-4.11002 c -7.8206,-6.76691 -17.25,-15.90674 -17.25,-16.72027 0,-0.41862 2.3625,-1.50069 5.25,-2.40461 11.2396,-3.51849 13.75002,-4.67863 13.74062,-6.34995 -0.0145,-2.57084 -5.73548,-11.95402 -8.32164,-13.64853 -4.11642,-2.69719 -26.58509,-3.92482 -47.34866,-2.58702 -26.10279,1.6818 -26.35393,1.7931 -31.40045,13.91539 -2.6639,6.39897 -3.1568,8.82579 -3.07433,15.13682 0.0835,6.38691 2.75109,30.38768 4.8055,43.235251 l 0.60458,3.78079 h 10.87219 c 12.62288,0 12.01462,-0.78678 8.87678,11.48204 -2.34265,9.15971 -3.11648,10.29989 -7.26883,10.71016 -2.9862,0.29505 -3.0414,0.38123 -1.33205,2.07984 1.38694,1.37824 2.81807,1.65268 6.43976,1.2349 2.56109,-0.29543 16.52589,-1.21393 31.03288,-2.04112 z m -18.37015,-21.8688 c -2.58741,-3.39228 -10.57527,-21.457211 -14.56121,-32.930891 l -2.37407,-6.83387 2.46454,-1.90086 c 5.73928,-4.42662 32.59643,-16.9314 36.36443,-16.9314 2.12281,0 5.9469,12.66017 10.18821,33.7295 2.6581,13.20445 3.22628,17.74883 2.40984,19.274341 -0.58757,1.09789 -1.44353,1.99616 -1.90213,1.99616 -2.75538,0 -18.73681,3.25496 -23.9541,4.87876 l -6.18873,1.92615 z m 16.45336,-5.26093 c 5.24724,-1.46515 9.62555,-2.712761 9.72957,-2.772471 0.10403,-0.0597 -0.67536,-4.57231 -1.73197,-10.02802 -2.48491,-12.83059 -7.67051,-29.48837 -9.38453,-30.1461 -1.66058,-0.63722 -19.57239,7.65068 -21.42746,9.91462 -1.11795,1.36435 -1.13549,2.57506 -0.10029,6.92466 2.5356,10.65384 10.24149,28.771221 12.2373,28.771221 0.62532,0 5.43014,-1.19876 10.67738,-2.66391 z m -263.5202,22.63929 c 35.18606,-1.4091 50.95481,-3.33555 53.6235,-6.55112 1.47278,-1.7746 1.43711,-12.1524 -0.0703,-20.465501 -2.75227,-15.17764 -14.56393,-48.62104 -18.59639,-52.6535 -2.29361,-2.29361 -2.44224,-2.30526 -29.40916,-2.30526 -27.22353,0 -39.65411,1.00816 -43.6261,3.53822 -2.33306,1.4861 -5.36091,9.16843 -5.36091,13.60183 0,1.53107 1.09456,6.23057 2.43237,10.44333 l 2.43236,7.65957 -2.95804,2.48902 c -1.62692,1.36897 -3.84621,3.22681 -4.93176,4.12853 -2.27217,1.88742 -3.97493,9.63929 -3.97493,18.095991 0,5.0806 0.38211,6.12992 3.60205,9.8917 1.98113,2.31451 6.07238,6.22051 9.09167,8.68 6.34656,5.16987 2.80516,4.84644 37.74564,3.44719 z M 145.66471,106.9731 c -2.6489,-5.58215 -3.62745,-12.975481 -3.62745,-27.406791 v -13.50647 l 10.21743,0.70372 c 14.77802,1.01782 27.02754,3.30533 28.55284,5.33204 2.38867,3.17391 8.14763,22.64416 7.0787,23.93213 -0.54826,0.66061 -9.40106,3.993651 -19.6729,7.406751 -10.27184,3.4131 -19.17587,6.38849 -19.78673,6.61197 -0.61087,0.22349 -1.85371,-1.15952 -2.76189,-3.07335 z m 20.14104,-8.126471 c 13.54957,-4.41797 13.65974,-4.49146 12.97069,-8.6508 -0.98802,-5.96405 -4.84971,-14.87663 -7.07294,-16.32398 -2.50412,-1.63022 -16.26439,-3.09476 -20.07981,-2.13714 -2.28603,0.57375 -2.58643,1.15438 -2.58643,4.99911 0,8.58944 3.69114,25.611931 5.55367,25.611931 0.26582,0 5.31249,-1.5746 11.21482,-3.499121 z m 319.48069,-14.77803 c -0.94974,-1.04945 -2.51934,-2.33225 -3.48799,-2.85065 -1.594,-0.85309 -1.76119,-0.35104 -1.76119,5.28879 v 6.23135 l 3.48799,-3.3807 c 3.33846,-3.23576 3.41397,-3.46249 1.76119,-5.28879 z m -164.24918,1.33617 c 0,-3.91313 -1.17007,-4.43303 -5.70598,-2.53536 l -3.79402,1.58729 4,1.86358 c 5.35561,2.49515 5.5,2.47112 5.5,-0.91551 z M 133.62552,28.120799 c -2.26009,-3.44933 -6.58826,-14.3864 -6.58826,-16.64819 0,-1.05208 0.7875,-2.2355793 1.75,-2.6299893 3.01503,-1.23549 37.82271,-2.55896 59.75,-2.27184 l 21,0.27497 0.32265,3.3746303 c 0.17746,1.856049 -0.40187,6.631249 -1.28741,10.611559 l -1.61006,7.23693 -20.71259,-0.4966 c -18.5472,-0.44468 -42.61412,0.73182 -48.87767,2.38938 -1.5716,0.4159 -2.59861,-0.0887 -3.74666,-1.84085 z m 25.41174,-4.74802 c 7.975,-0.59889 19.45,-1.18747 25.5,-1.30796 l 11,-0.21907 1.36995,-4.33005 c 1.05019,-3.31936 1.09533,-4.60313 0.19342,-5.5 -1.32867,-1.32124 -49.8932,-1.19909 -56.06337,0.14102 -4.1936,0.91081 -4.98332,3.89985 -2.56167,9.69569 1.28761,3.08168 1.93463,3.61898 3.80648,3.16102 1.24036,-0.30346 8.78019,-1.04175 16.75519,-1.64065 z"
     id="path20"
     inkscape:connector-curvature="0" />
</svg>
